<svg width="199" height="65" viewBox="0 0 199 65" fill="none" xmlns="http://www.w3.org/2000/svg">
<path d="M8.63603 1.16563C5.2014 2.60432 1.42616 6.6636 0.233725 11.7628C-1.27663 18.2214 5.00742 20.9535 5.52326 20.0589C6.12983 19.0065 4.39723 18.6508 4.04052 15.2993C3.57959 10.9708 5.59197 6.13429 8.12479 4.0121C8.59493 3.61758 8.5729 4.16662 8.5729 5.18152C8.5729 6.99665 8.47263 23.2917 8.47263 26.6924C8.47263 31.2939 8.2826 32.747 7.94101 34.1831C7.59548 35.6379 7.0392 36.6212 7.46036 36.9999C7.93115 37.4234 9.94123 36.4157 11.1047 34.7919C12.5 32.8443 12.9886 30.5048 13.0764 27.9651C13.1822 24.9029 13.1776 20.0438 13.1822 17.2723C13.1862 14.7306 13.225 7.2876 13.1375 2.81308C13.1161 1.715 10.0724 0.56366 8.63603 1.16563Z" fill="#FAFAFA"/>
<path d="M130.59 22.7009C130.479 25.0933 129.949 26.963 129.292 28.282C128.02 30.8355 125.38 31.6282 124.259 27.9578C123.648 25.957 123.619 22.6154 124.058 19.8232C124.505 16.979 125.754 14.8308 127.821 15.0245C129.86 15.2162 130.814 17.8433 130.59 22.7012V22.7009ZM96.2173 37.5434C96.1897 41.5182 95.564 45.0031 94.2227 46.0157C92.3198 47.4511 89.7623 46.3741 90.2919 43.4737C90.7604 40.907 92.9766 38.2857 96.2229 35.0829C96.2229 35.0829 96.2295 35.8134 96.2173 37.5434ZM95.6978 22.6775C95.5815 24.8566 95.0166 27.0452 94.4002 28.282C93.1279 30.8355 90.4688 31.6338 89.3668 27.9578C88.6132 25.4461 88.7937 22.1959 89.1662 20.1477C89.6502 17.4902 90.8232 15.0248 92.929 15.0248C94.9765 15.0248 95.9865 17.2713 95.6978 22.6775ZM75.7861 22.6446C75.6611 24.9519 75.211 26.8808 74.4887 28.282C73.1816 30.8181 70.5955 31.6223 69.4553 27.9578C68.6331 25.3155 68.9129 21.7129 69.2548 19.7666C69.7624 16.8784 71.0334 14.8308 73.0175 15.0248C75.0555 15.224 76.0461 17.8433 75.7861 22.6446ZM167.036 25.3399C166.538 25.3399 166.311 25.8534 166.122 26.7174C165.47 29.7237 164.784 30.4019 163.9 30.4019C162.912 30.4019 162.025 28.9139 161.796 25.9346C161.617 23.5918 161.646 19.2791 161.875 14.989C161.922 14.1075 161.679 13.2353 159.315 12.3766C158.297 12.0071 156.819 11.4629 156.082 13.2403C154.002 18.2619 153.188 22.2485 152.996 23.8673C152.986 23.9512 152.884 23.9686 152.866 23.7726C152.744 22.4757 152.471 20.1184 152.437 15.1665C152.43 14.2003 152.226 13.378 151.159 12.7047C150.467 12.2674 148.366 11.4948 147.61 12.4144C146.954 13.166 146.195 15.1892 145.406 17.5879C144.765 19.5375 144.318 20.8558 144.318 20.8558C144.318 20.8558 144.327 15.5962 144.334 13.6009C144.338 12.8484 143.821 12.5975 143.666 12.5522C142.965 12.349 141.585 12.0094 140.999 12.0094C140.275 12.0094 140.099 12.4131 140.099 13.0022C140.099 13.0795 139.984 19.9271 139.984 24.7152C139.984 24.9233 139.984 25.1502 139.985 25.3915C139.586 27.5923 138.289 30.5794 136.878 30.5794C135.466 30.5794 134.8 29.3308 134.8 23.6224C134.8 20.2923 134.9 18.8441 134.949 16.4355C134.977 15.0482 135.033 13.9829 135.029 13.7413C135.019 12.9999 133.737 12.6261 133.14 12.488C132.541 12.349 132.02 12.2947 131.614 12.3181C131.038 12.3509 130.631 12.728 130.631 13.2475C130.631 13.5263 130.634 14.0556 130.634 14.0556C129.893 12.8905 128.7 12.0797 127.907 11.8446C125.77 11.2101 123.54 11.7723 121.858 14.126C120.521 15.9957 119.716 18.1139 119.398 21.1566C119.167 23.3814 119.242 25.6371 119.654 27.5449C119.156 29.6977 118.232 30.5794 117.22 30.5794C115.75 30.5794 114.685 28.1814 114.809 24.033C114.89 21.3046 115.436 19.3899 116.033 16.6197C116.288 15.4387 116.081 14.8206 115.562 14.2282C115.087 13.6848 114.073 13.4069 112.617 13.7482C111.579 13.9918 110.095 14.2539 108.738 14.4551C108.738 14.4551 108.82 14.1279 108.887 13.5519C109.24 10.5306 105.957 10.7755 104.909 11.7404C104.284 12.3168 103.858 12.9963 103.697 14.218C103.44 16.1571 105.022 17.0717 105.022 17.0717C104.503 19.4467 103.231 22.549 101.918 24.7922C101.215 25.9938 100.677 26.8844 99.9823 27.8309C99.9597 24.0324 99.9844 20.2338 100.057 16.4359C100.085 15.0485 100.141 14.0115 100.138 13.7696C100.13 13.2278 99.8133 13.0226 99.1548 12.7635C98.5723 12.5341 97.8838 12.3756 97.1694 12.3197C96.2679 12.25 95.7248 12.7277 95.7393 13.2932C95.7419 13.4 95.7419 14.0556 95.7419 14.0556C95.0005 12.8905 93.8081 12.0797 93.0148 11.8446C90.8778 11.2101 88.6481 11.7723 86.9661 14.126C85.6297 15.9957 84.7545 18.6199 84.5063 21.1336C84.2755 23.4761 84.3179 25.4668 84.6329 27.1442C84.2932 28.8235 83.3161 30.5798 82.2118 30.5798C80.7994 30.5798 79.9959 29.3308 79.9959 23.6224C79.9959 20.2923 80.0959 18.8441 80.1452 16.4355C80.1738 15.0485 80.2287 13.9829 80.2257 13.7413C80.2152 12.9999 78.9333 12.6265 78.3366 12.488C77.7126 12.3434 77.1738 12.2908 76.7599 12.3214C76.2141 12.3618 75.8301 12.8507 75.8301 13.2153V14.0556C75.0887 12.8905 73.8963 12.0797 73.103 11.8446C70.966 11.2101 68.7488 11.7815 67.0543 14.126C65.9497 15.6544 65.0551 17.3489 64.5948 21.1001C64.4617 22.184 64.4028 23.1996 64.4107 24.1481C63.9702 26.8427 62.0239 29.9482 60.4323 29.9482C59.5009 29.9482 58.6136 28.1413 58.6136 24.2911C58.6136 19.1623 58.9312 11.8598 58.9851 11.1562C58.9851 11.1562 60.9961 11.122 61.3854 11.1174C62.3888 11.1062 63.2972 11.1302 64.6336 11.0615C65.3037 11.0277 65.9494 8.62207 65.2576 8.32454C64.944 8.18974 62.7284 8.07204 61.85 8.0533C61.1115 8.03686 59.0554 7.88432 59.0554 7.88432C59.0554 7.88432 59.2399 3.0373 59.2829 2.52541C59.3191 2.09834 58.7668 1.87873 58.4505 1.74558C57.6805 1.4201 56.9918 1.26394 56.1754 1.09561C55.0471 0.862841 54.5355 1.09068 54.4356 2.04245C54.285 3.48738 54.2071 7.7196 54.2071 7.7196C53.3793 7.7196 50.5512 7.55785 49.7234 7.55785C48.9541 7.55785 48.1236 10.8666 49.1875 10.9073C50.4112 10.9547 52.5439 10.9961 53.9576 11.0382C53.9576 11.0382 53.8944 18.4611 53.8944 20.7532C53.8944 20.9965 53.8958 21.2316 53.8971 21.4594C53.1189 25.5148 50.3783 27.7057 50.3783 27.7057C50.9668 25.0226 49.7645 23.0076 47.5989 21.302C46.801 20.6737 45.2258 19.4839 43.4637 18.18C43.4637 18.18 44.4841 17.174 45.3896 15.1501C46.0307 13.716 46.0586 12.0758 44.4841 11.7138C41.8829 11.1154 39.7384 13.0259 39.0986 15.0656C38.6028 16.6456 38.8672 17.8177 39.8383 19.0354C39.909 19.1245 39.9863 19.2156 40.0652 19.307C39.4783 20.4386 38.6715 21.9625 37.9884 23.144C36.092 26.4251 34.6596 29.0198 33.577 29.0198C32.7117 29.0198 32.7232 26.385 32.7232 23.9183C32.7232 21.7918 32.8803 18.5946 33.0059 15.2849C33.0473 14.1901 32.4996 13.5664 31.5823 13.0016C31.0247 12.6583 29.8349 11.9837 29.1458 11.9837C28.1142 11.9837 25.1382 12.1241 22.3266 20.2578C21.9721 21.2829 21.2758 23.1509 21.2758 23.1509L21.336 13.3698C21.336 13.1403 21.2137 12.9187 20.9339 12.7672C20.4601 12.5097 19.1947 11.9837 18.0693 11.9837C17.5335 11.9837 17.2655 12.2329 17.2655 12.73L17.1675 28.0328C17.1675 29.1957 17.1978 30.5522 17.3129 31.1452C17.4273 31.739 17.613 32.2223 17.8425 32.5096C18.0723 32.7966 18.3376 33.0159 18.7752 33.106C19.1826 33.1899 21.4129 33.4762 21.529 32.624C21.6677 31.6022 21.6733 30.4976 22.8444 26.3768C24.6677 19.9612 27.0447 16.8314 28.1625 15.7195C28.3581 15.5255 28.581 15.5137 28.5702 15.8316C28.5228 17.2381 28.3548 20.7532 28.2421 23.7385C27.9393 31.7291 29.3927 33.2102 31.4702 33.2102C33.0595 33.2102 35.2997 31.6312 37.701 27.634C39.039 25.4065 40.3709 23.1752 41.6965 20.9403C42.4241 21.614 43.2411 22.3389 44.0571 23.1135C45.9541 24.9138 46.5767 26.6247 46.1635 28.2475C45.8479 29.4879 44.6574 30.7665 42.5392 29.5241C41.9217 29.1615 41.6581 28.881 41.0374 28.4724C40.704 28.2531 40.1947 28.1873 39.8893 28.4175C39.0963 29.0152 38.6426 29.7759 38.3835 30.7175C38.1317 31.6338 39.0493 32.1181 40.0007 32.5419C40.8197 32.9065 42.5803 33.2369 43.7027 33.2743C48.0769 33.4206 51.5812 31.1623 54.0207 25.3369C54.4573 30.368 56.3155 33.2148 59.5443 33.2148C61.703 33.2148 63.8673 30.4246 64.8138 27.6797C65.0854 28.7985 65.4878 29.7717 66.0072 30.5946C68.495 34.5365 73.3213 33.6883 75.7456 30.3408C76.4952 29.3065 76.6093 28.9349 76.6093 28.9349C76.963 32.0954 79.5084 33.1997 80.9655 33.1997C82.5978 33.1997 84.2827 32.4281 85.464 29.769C85.6024 30.0577 85.7536 30.3335 85.9187 30.5946C88.4064 34.5365 93.2331 33.6883 95.6574 30.3408C95.7718 30.1836 95.8711 30.0416 95.9576 29.9134L96.0286 31.9895L93.7966 34.0368C90.0552 37.4658 87.2134 40.0663 87.0043 43.0953C86.738 46.9573 89.8685 48.3927 92.2402 48.5808C94.7543 48.7803 96.9113 47.3903 98.2349 45.445C99.4001 43.7324 100.163 40.0469 100.107 36.4072C100.085 34.9494 100.047 33.0962 100.019 31.1094C101.332 29.5843 102.812 27.6564 104.174 25.4004C105.659 22.9415 107.25 19.6394 108.065 17.0694C108.065 17.0694 109.448 17.0816 110.923 16.9849C111.395 16.954 111.531 17.0507 111.443 17.3962C111.338 17.8144 109.579 24.5979 111.184 29.1168C112.283 32.2105 114.759 33.2053 116.228 33.2053C117.947 33.2053 119.591 31.9073 120.472 29.9801C120.579 30.1948 120.689 30.4026 120.811 30.5949C123.299 34.5368 128.108 33.683 130.549 30.3408C131.1 29.5866 131.413 28.9349 131.413 28.9349C131.937 32.2062 134.481 33.2165 135.938 33.2165C137.456 33.2165 138.896 32.5941 140.065 29.8289C140.114 31.0466 140.191 32.0421 140.312 32.3558C140.386 32.5481 140.817 32.7888 141.131 32.9051C142.52 33.42 143.935 33.1767 144.459 33.0708C144.822 32.9972 145.105 32.7059 145.144 31.9543C145.246 29.9801 145.184 26.6632 145.782 24.1977C146.786 20.0609 147.724 18.4562 148.168 17.6618C148.417 17.2164 148.697 17.1431 148.708 17.6142C148.729 18.5676 148.776 21.3664 149.165 25.1275C149.451 27.8931 149.833 29.528 150.126 30.0459C150.964 31.5253 151.998 31.5953 152.84 31.5953C153.376 31.5953 154.497 31.4474 154.396 30.5058C154.347 30.0468 154.433 27.2102 155.423 23.1345C156.07 20.4728 157.148 18.0682 157.537 17.1888C157.681 16.8646 157.748 17.12 157.745 17.17C157.663 19.0029 157.479 24.9983 158.226 28.2774C159.239 32.7194 162.167 33.2165 163.187 33.2165C165.366 33.2165 167.147 31.5595 167.747 27.1994C167.892 26.15 167.678 25.3399 167.036 25.3399Z" fill="#FAFAFA"/>
<g filter="url(#filter0_d_3_27)">
<path d="M104.635 41.08C104.635 39.37 104.98 37.72 105.67 36.13C106.39 34.51 107.32 33.085 108.46 31.855C109.63 30.595 110.95 29.59 112.42 28.84C113.92 28.06 115.465 27.67 117.055 27.67C118.615 27.67 119.815 28.06 120.655 28.84C121.495 29.62 121.915 30.73 121.915 32.17C121.915 32.86 121.81 33.535 121.6 34.195C121.42 34.825 121.165 35.395 120.835 35.905C120.535 36.415 120.175 36.835 119.755 37.165C119.335 37.465 118.915 37.615 118.495 37.615C118.135 37.615 117.76 37.51 117.37 37.3C117.01 37.06 116.71 36.76 116.47 36.4C118.48 34.57 119.485 32.905 119.485 31.405C119.485 30.535 119.14 30.1 118.45 30.1C117.85 30.1 117.1 30.385 116.2 30.955C115.3 31.525 114.43 32.275 113.59 33.205C112.3 34.645 111.31 36.25 110.62 38.02C109.96 39.76 109.63 41.59 109.63 43.51C109.63 45.94 110.17 47.395 111.25 47.875C111.7 47.815 112.225 47.68 112.825 47.47C113.425 47.26 114.07 46.99 114.76 46.66C115.45 46.3 116.155 45.895 116.875 45.445C117.625 44.995 118.345 44.515 119.035 44.005C119.155 44.095 119.26 44.23 119.35 44.41C119.44 44.59 119.485 44.755 119.485 44.905C118.975 45.535 118.39 46.15 117.73 46.75C117.07 47.35 116.38 47.905 115.66 48.415C114.94 48.895 114.235 49.3 113.545 49.63C112.885 49.99 112.3 50.215 111.79 50.305C110.8 50.215 109.87 49.9 109 49.36C108.13 48.85 107.365 48.175 106.705 47.335C106.075 46.495 105.565 45.535 105.175 44.455C104.815 43.375 104.635 42.25 104.635 41.08ZM123.216 46.12C123.216 44.8 123.531 42.955 124.161 40.585C124.791 38.185 125.676 35.395 126.816 32.215C128.676 27.145 130.416 22.93 132.036 19.57C133.686 16.18 135.291 13.54 136.851 11.65C137.211 11.71 137.646 11.86 138.156 12.1C138.696 12.34 139.221 12.61 139.731 12.91C140.241 13.18 140.691 13.465 141.081 13.765C141.501 14.065 141.771 14.305 141.891 14.485C139.551 17.245 137.496 20.215 135.726 23.395C133.956 26.575 132.336 30.22 130.866 34.33C129.606 37.87 128.646 41.065 127.986 43.915C127.326 46.735 126.996 49.09 126.996 50.98C126.996 51.49 126.996 51.805 126.996 51.925C126.996 52.045 127.011 52.165 127.041 52.285C126.621 52.225 126.261 52.12 125.961 51.97C125.661 51.82 125.466 51.64 125.376 51.43C125.316 51.28 125.151 51.055 124.881 50.755C124.611 50.485 124.371 50.275 124.161 50.125C123.891 49.945 123.666 49.48 123.486 48.73C123.306 47.95 123.216 47.08 123.216 46.12ZM139.03 50.575C137.32 50.395 135.955 49.645 134.935 48.325C133.915 47.005 133.405 45.325 133.405 43.285C133.405 42.085 133.585 40.84 133.945 39.55C134.305 38.26 134.815 37.015 135.475 35.815C136.135 34.585 136.915 33.43 137.815 32.35C138.715 31.27 139.69 30.34 140.74 29.56C142.39 28.33 143.935 27.715 145.375 27.715C146.335 28.225 147.28 29.29 148.21 30.91C148.36 30.91 148.495 30.91 148.615 30.91C148.735 30.88 148.87 30.865 149.02 30.865C150.61 30.865 151.405 32.275 151.405 35.095C151.405 36.985 151.09 38.785 150.46 40.495C149.86 42.175 149.005 43.705 147.895 45.085C146.815 46.465 145.51 47.635 143.98 48.595C142.48 49.525 140.83 50.185 139.03 50.575ZM141.325 36.4C140.815 37.09 140.335 37.84 139.885 38.65C139.435 39.46 139.045 40.285 138.715 41.125C138.385 41.935 138.13 42.73 137.95 43.51C137.77 44.26 137.68 44.935 137.68 45.535C137.68 46.255 137.8 46.945 138.04 47.605C138.28 48.265 138.55 48.64 138.85 48.73C140.2 48.43 141.43 47.875 142.54 47.065C143.68 46.225 144.655 45.19 145.465 43.96C146.305 42.73 146.95 41.335 147.4 39.775C147.88 38.215 148.12 36.55 148.12 34.78C148.12 34 148.075 33.385 147.985 32.935C147.895 32.485 147.745 32.095 147.535 31.765C146.215 32.155 145.03 32.785 143.98 33.655C142.96 34.525 142.075 35.44 141.325 36.4ZM160.874 27.175C161.654 27.415 162.389 27.955 163.079 28.795C163.769 29.605 164.279 30.505 164.609 31.495C164.279 32.305 163.769 33.28 163.079 34.42C162.389 35.56 161.699 36.73 161.009 37.93C160.319 39.1 159.689 40.225 159.119 41.305C158.579 42.355 158.264 43.225 158.174 43.915C158.654 43.405 159.179 42.82 159.749 42.16C160.349 41.47 160.919 40.795 161.459 40.135C162.029 39.445 162.554 38.83 163.034 38.29C163.514 37.72 163.889 37.3 164.159 37.03C164.729 36.43 165.404 35.74 166.184 34.96C166.964 34.15 167.774 33.4 168.614 32.71C169.484 31.99 170.354 31.39 171.224 30.91C172.094 30.4 172.889 30.145 173.609 30.145C174.389 30.145 175.034 30.415 175.544 30.955C176.084 31.465 176.504 32.005 176.804 32.575C176.804 32.635 176.684 32.725 176.444 32.845C176.234 32.935 175.919 33.22 175.499 33.7C175.079 34.24 174.599 34.99 174.059 35.95C173.549 36.88 173.039 37.9 172.529 39.01C172.049 40.09 171.644 41.2 171.314 42.34C170.984 43.48 170.819 44.515 170.819 45.445C170.819 46.195 170.909 46.675 171.089 46.885C171.299 47.095 171.584 47.2 171.944 47.2C172.274 47.2 172.619 47.125 172.979 46.975C173.339 46.825 173.624 46.75 173.834 46.75C173.954 46.81 174.044 46.945 174.104 47.155C174.194 47.335 174.239 47.5 174.239 47.65C173.999 47.86 173.714 48.07 173.384 48.28C173.054 48.49 172.709 48.685 172.349 48.865C171.989 49.045 171.629 49.195 171.269 49.315C170.939 49.435 170.639 49.495 170.369 49.495C169.499 49.495 168.779 49.36 168.209 49.09C167.669 48.85 167.234 48.52 166.904 48.1C166.604 47.68 166.394 47.185 166.274 46.615C166.154 46.015 166.094 45.385 166.094 44.725C166.094 44.365 166.124 43.96 166.184 43.51C166.244 43.06 166.364 42.535 166.544 41.935C166.724 41.305 166.979 40.57 167.309 39.73C167.639 38.86 168.059 37.825 168.569 36.625C168.509 36.625 168.104 36.835 167.354 37.255C166.604 37.675 165.794 38.32 164.924 39.19C163.514 40.54 162.239 41.875 161.099 43.195C159.989 44.515 158.849 45.985 157.679 47.605C157.019 48.535 156.434 49.315 155.924 49.945C155.444 50.605 155.024 51.04 154.664 51.25C154.034 50.89 153.569 50.38 153.269 49.72C152.969 49.09 152.744 48.43 152.594 47.74C152.594 47.17 152.669 46.45 152.819 45.58C152.999 44.71 153.224 43.75 153.494 42.7C153.794 41.62 154.154 40.495 154.574 39.325C154.994 38.155 155.459 36.985 155.969 35.815C157.109 33.175 158.144 31.105 159.074 29.605C160.034 28.105 160.634 27.295 160.874 27.175ZM193.996 30.37C193.876 32.23 193.546 33.835 193.006 35.185C192.466 36.505 191.686 37.675 190.666 38.695C189.676 39.685 188.461 40.585 187.021 41.395C185.581 42.205 183.901 42.985 181.981 43.735C181.981 43.915 181.966 44.11 181.936 44.32C181.936 44.5 181.936 44.695 181.936 44.905C181.936 45.295 181.966 45.7 182.026 46.12C182.086 46.54 182.191 46.93 182.341 47.29C182.491 47.65 182.701 47.95 182.971 48.19C183.241 48.4 183.586 48.505 184.006 48.505C184.816 48.505 185.611 48.325 186.391 47.965C187.171 47.605 187.906 47.17 188.596 46.66C189.316 46.12 189.976 45.55 190.576 44.95C191.206 44.32 191.761 43.75 192.241 43.24C192.541 43.51 192.796 43.765 193.006 44.005C191.656 45.805 190.171 47.305 188.551 48.505C186.961 49.675 185.446 50.425 184.006 50.755C181.936 50.515 180.316 49.765 179.146 48.505C178.006 47.215 177.436 45.67 177.436 43.87C177.436 42.64 177.601 41.395 177.931 40.135C178.291 38.845 178.771 37.615 179.371 36.445C180.001 35.245 180.721 34.12 181.531 33.07C182.371 32.02 183.256 31.105 184.186 30.325C185.146 29.545 186.121 28.93 187.111 28.48C188.131 28.03 189.136 27.805 190.126 27.805C191.506 27.985 192.796 28.84 193.996 30.37ZM190.891 31.855C190.081 31.975 189.241 32.305 188.371 32.845C187.501 33.385 186.676 34.105 185.896 35.005C185.146 35.905 184.456 36.955 183.826 38.155C183.196 39.355 182.701 40.645 182.341 42.025C184.741 40.825 186.736 39.355 188.326 37.615C189.916 35.845 190.771 33.925 190.891 31.855Z" fill="#EA1B1B"/>
</g>
<defs>
<filter id="filter0_d_3_27" x="99.635" y="10.65" width="99.3606" height="50.635" filterUnits="userSpaceOnUse" color-interpolation-filters="sRGB">
<feFlood flood-opacity="0" result="BackgroundImageFix"/>
<feColorMatrix in="SourceAlpha" type="matrix" values="0 0 0 0 0 0 0 0 0 0 0 0 0 0 0 0 0 0 127 0" result="hardAlpha"/>
<feOffset dy="4"/>
<feGaussianBlur stdDeviation="2.5"/>
<feComposite in2="hardAlpha" operator="out"/>
<feColorMatrix type="matrix" values="0 0 0 0 0 0 0 0 0 0 0 0 0 0 0 0 0 0 0.53 0"/>
<feBlend mode="normal" in2="BackgroundImageFix" result="effect1_dropShadow_3_27"/>
<feBlend mode="normal" in="SourceGraphic" in2="effect1_dropShadow_3_27" result="shape"/>
</filter>
</defs>
</svg>
