<svg width="194" height="76" viewBox="0 0 194 76" fill="none" xmlns="http://www.w3.org/2000/svg">
<path d="M8.63603 12.1656C5.2014 13.6043 1.42616 17.6636 0.233725 22.7628C-1.27663 29.2214 5.00742 31.9535 5.52326 31.0589C6.12983 30.0065 4.39723 29.6508 4.04052 26.2993C3.57959 21.9708 5.59197 17.1343 8.12479 15.0121C8.59493 14.6176 8.5729 15.1666 8.5729 16.1815C8.5729 17.9966 8.47263 34.2917 8.47263 37.6924C8.47263 42.2939 8.2826 43.747 7.94101 45.1831C7.59548 46.6379 7.0392 47.6212 7.46036 47.9999C7.93115 48.4234 9.94123 47.4157 11.1047 45.7919C12.5 43.8443 12.9886 41.5048 13.0764 38.9651C13.1822 35.9029 13.1776 31.0438 13.1822 28.2723C13.1862 25.7306 13.225 18.2876 13.1375 13.8131C13.1161 12.715 10.0724 11.5637 8.63603 12.1656Z" fill="#C0C0C0"/>
<path d="M130.59 33.7009C130.479 36.0933 129.949 37.963 129.292 39.282C128.02 41.8355 125.38 42.6282 124.259 38.9578C123.648 36.957 123.619 33.6154 124.058 30.8232C124.505 27.979 125.754 25.8308 127.821 26.0245C129.86 26.2162 130.814 28.8433 130.59 33.7012V33.7009ZM96.2173 48.5434C96.1897 52.5182 95.564 56.0031 94.2227 57.0157C92.3198 58.4511 89.7623 57.3741 90.2919 54.4737C90.7604 51.907 92.9766 49.2857 96.2229 46.0829C96.2229 46.0829 96.2295 46.8134 96.2173 48.5434ZM95.6978 33.6775C95.5815 35.8566 95.0166 38.0452 94.4002 39.282C93.1279 41.8355 90.4688 42.6338 89.3668 38.9578C88.6132 36.4461 88.7937 33.1959 89.1662 31.1477C89.6502 28.4902 90.8232 26.0248 92.929 26.0248C94.9765 26.0248 95.9865 28.2713 95.6978 33.6775ZM75.7861 33.6446C75.6611 35.9519 75.211 37.8808 74.4887 39.282C73.1816 41.8181 70.5955 42.6223 69.4553 38.9578C68.6331 36.3155 68.9129 32.7129 69.2548 30.7666C69.7624 27.8784 71.0334 25.8308 73.0175 26.0248C75.0555 26.224 76.0461 28.8433 75.7861 33.6446ZM167.036 36.3399C166.538 36.3399 166.311 36.8534 166.122 37.7174C165.47 40.7237 164.784 41.4019 163.9 41.4019C162.912 41.4019 162.025 39.9139 161.796 36.9346C161.617 34.5918 161.646 30.2791 161.875 25.989C161.922 25.1075 161.679 24.2353 159.315 23.3766C158.297 23.0071 156.819 22.4629 156.082 24.2403C154.002 29.2619 153.188 33.2485 152.996 34.8673C152.986 34.9512 152.884 34.9686 152.866 34.7726C152.744 33.4757 152.471 31.1184 152.437 26.1665C152.43 25.2003 152.226 24.378 151.159 23.7047C150.467 23.2674 148.366 22.4948 147.61 23.4144C146.954 24.166 146.195 26.1892 145.406 28.5879C144.765 30.5375 144.318 31.8558 144.318 31.8558C144.318 31.8558 144.327 26.5962 144.334 24.6009C144.338 23.8484 143.821 23.5975 143.666 23.5522C142.965 23.349 141.585 23.0094 140.999 23.0094C140.275 23.0094 140.099 23.4131 140.099 24.0022C140.099 24.0795 139.984 30.9271 139.984 35.7152C139.984 35.9233 139.984 36.1502 139.985 36.3915C139.586 38.5923 138.289 41.5794 136.878 41.5794C135.466 41.5794 134.8 40.3308 134.8 34.6224C134.8 31.2923 134.9 29.8441 134.949 27.4355C134.977 26.0482 135.033 24.9829 135.029 24.7413C135.019 23.9999 133.737 23.6261 133.14 23.488C132.541 23.349 132.02 23.2947 131.614 23.3181C131.038 23.3509 130.631 23.728 130.631 24.2475C130.631 24.5263 130.634 25.0556 130.634 25.0556C129.893 23.8905 128.7 23.0797 127.907 22.8446C125.77 22.2101 123.54 22.7723 121.858 25.126C120.521 26.9957 119.716 29.1139 119.398 32.1566C119.167 34.3814 119.242 36.6371 119.654 38.5449C119.156 40.6977 118.232 41.5794 117.22 41.5794C115.75 41.5794 114.685 39.1814 114.809 35.033C114.89 32.3046 115.436 30.3899 116.033 27.6197C116.288 26.4387 116.081 25.8206 115.562 25.2282C115.087 24.6848 114.073 24.4069 112.617 24.7482C111.579 24.9918 110.095 25.2539 108.738 25.4551C108.738 25.4551 108.82 25.1279 108.887 24.5519C109.24 21.5306 105.957 21.7755 104.909 22.7404C104.284 23.3168 103.858 23.9963 103.697 25.218C103.44 27.1571 105.022 28.0717 105.022 28.0717C104.503 30.4467 103.231 33.549 101.918 35.7922C101.215 36.9938 100.677 37.8844 99.9823 38.8309C99.9597 35.0324 99.9844 31.2338 100.057 27.4359C100.085 26.0485 100.141 25.0115 100.138 24.7696C100.13 24.2278 99.8133 24.0226 99.1548 23.7635C98.5723 23.5341 97.8838 23.3756 97.1694 23.3197C96.2679 23.25 95.7248 23.7277 95.7393 24.2932C95.7419 24.4 95.7419 25.0556 95.7419 25.0556C95.0005 23.8905 93.8081 23.0797 93.0148 22.8446C90.8778 22.2101 88.6481 22.7723 86.9661 25.126C85.6297 26.9957 84.7545 29.6199 84.5063 32.1336C84.2755 34.4761 84.3179 36.4668 84.6329 38.1442C84.2932 39.8235 83.3161 41.5798 82.2118 41.5798C80.7994 41.5798 79.9959 40.3308 79.9959 34.6224C79.9959 31.2923 80.0959 29.8441 80.1452 27.4355C80.1738 26.0485 80.2287 24.9829 80.2257 24.7413C80.2152 23.9999 78.9333 23.6265 78.3366 23.488C77.7126 23.3434 77.1738 23.2908 76.7599 23.3214C76.2141 23.3618 75.8301 23.8507 75.8301 24.2153V25.0556C75.0887 23.8905 73.8963 23.0797 73.103 22.8446C70.966 22.2101 68.7488 22.7815 67.0543 25.126C65.9497 26.6544 65.0551 28.3489 64.5948 32.1001C64.4617 33.184 64.4028 34.1996 64.4107 35.1481C63.9702 37.8427 62.0239 40.9482 60.4323 40.9482C59.5009 40.9482 58.6136 39.1413 58.6136 35.2911C58.6136 30.1623 58.9312 22.8598 58.9851 22.1562C58.9851 22.1562 60.9961 22.122 61.3854 22.1174C62.3888 22.1062 63.2972 22.1302 64.6336 22.0615C65.3037 22.0277 65.9494 19.6221 65.2576 19.3245C64.944 19.1897 62.7284 19.072 61.85 19.0533C61.1115 19.0369 59.0554 18.8843 59.0554 18.8843C59.0554 18.8843 59.2399 14.0373 59.2829 13.5254C59.3191 13.0983 58.7668 12.8787 58.4505 12.7456C57.6805 12.4201 56.9918 12.2639 56.1754 12.0956C55.0471 11.8628 54.5355 12.0907 54.4356 13.0425C54.285 14.4874 54.2071 18.7196 54.2071 18.7196C53.3793 18.7196 50.5512 18.5579 49.7234 18.5579C48.9541 18.5579 48.1236 21.8666 49.1875 21.9073C50.4112 21.9547 52.5439 21.9961 53.9576 22.0382C53.9576 22.0382 53.8944 29.4611 53.8944 31.7532C53.8944 31.9965 53.8958 32.2316 53.8971 32.4594C53.1189 36.5148 50.3783 38.7057 50.3783 38.7057C50.9668 36.0226 49.7645 34.0076 47.5989 32.302C46.801 31.6737 45.2258 30.4839 43.4637 29.18C43.4637 29.18 44.4841 28.174 45.3896 26.1501C46.0307 24.716 46.0586 23.0758 44.4841 22.7138C41.8829 22.1154 39.7384 24.0259 39.0986 26.0656C38.6028 27.6456 38.8672 28.8177 39.8383 30.0354C39.909 30.1245 39.9863 30.2156 40.0652 30.307C39.4783 31.4386 38.6715 32.9625 37.9884 34.144C36.092 37.4251 34.6596 40.0198 33.577 40.0198C32.7117 40.0198 32.7232 37.385 32.7232 34.9183C32.7232 32.7918 32.8803 29.5946 33.0059 26.2849C33.0473 25.1901 32.4996 24.5664 31.5823 24.0016C31.0247 23.6583 29.8349 22.9837 29.1458 22.9837C28.1142 22.9837 25.1382 23.1241 22.3266 31.2578C21.9721 32.2829 21.2758 34.1509 21.2758 34.1509L21.336 24.3698C21.336 24.1403 21.2137 23.9187 20.9339 23.7672C20.4601 23.5097 19.1947 22.9837 18.0693 22.9837C17.5335 22.9837 17.2655 23.2329 17.2655 23.73L17.1675 39.0328C17.1675 40.1957 17.1978 41.5522 17.3129 42.1452C17.4273 42.739 17.613 43.2223 17.8425 43.5096C18.0723 43.7966 18.3376 44.0159 18.7752 44.106C19.1826 44.1899 21.4129 44.4762 21.529 43.624C21.6677 42.6022 21.6733 41.4976 22.8444 37.3768C24.6677 30.9612 27.0447 27.8314 28.1625 26.7195C28.3581 26.5255 28.581 26.5137 28.5702 26.8316C28.5228 28.2381 28.3548 31.7532 28.2421 34.7385C27.9393 42.7291 29.3927 44.2102 31.4702 44.2102C33.0595 44.2102 35.2997 42.6312 37.701 38.634C39.039 36.4065 40.3709 34.1752 41.6965 31.9403C42.4241 32.614 43.2411 33.3389 44.0571 34.1135C45.9541 35.9138 46.5767 37.6247 46.1635 39.2475C45.8479 40.4879 44.6574 41.7665 42.5392 40.5241C41.9217 40.1615 41.6581 39.881 41.0374 39.4724C40.704 39.2531 40.1947 39.1873 39.8893 39.4175C39.0963 40.0152 38.6426 40.7759 38.3835 41.7175C38.1317 42.6338 39.0493 43.1181 40.0007 43.5419C40.8197 43.9065 42.5803 44.2369 43.7027 44.2743C48.0769 44.4206 51.5812 42.1623 54.0207 36.3369C54.4573 41.368 56.3155 44.2148 59.5443 44.2148C61.703 44.2148 63.8673 41.4246 64.8138 38.6797C65.0854 39.7985 65.4878 40.7717 66.0072 41.5946C68.495 45.5365 73.3213 44.6883 75.7456 41.3408C76.4952 40.3065 76.6093 39.9349 76.6093 39.9349C76.963 43.0954 79.5084 44.1997 80.9655 44.1997C82.5978 44.1997 84.2827 43.4281 85.464 40.769C85.6024 41.0577 85.7536 41.3335 85.9187 41.5946C88.4064 45.5365 93.2331 44.6883 95.6574 41.3408C95.7718 41.1836 95.8711 41.0416 95.9576 40.9134L96.0286 42.9895L93.7966 45.0368C90.0552 48.4658 87.2134 51.0663 87.0043 54.0953C86.738 57.9573 89.8685 59.3927 92.2402 59.5808C94.7543 59.7803 96.9113 58.3903 98.2349 56.445C99.4001 54.7324 100.163 51.0469 100.107 47.4072C100.085 45.9494 100.047 44.0962 100.019 42.1094C101.332 40.5843 102.812 38.6564 104.174 36.4004C105.659 33.9415 107.25 30.6394 108.065 28.0694C108.065 28.0694 109.448 28.0816 110.923 27.9849C111.395 27.954 111.531 28.0507 111.443 28.3962C111.338 28.8144 109.579 35.5979 111.184 40.1168C112.283 43.2105 114.759 44.2053 116.228 44.2053C117.947 44.2053 119.591 42.9073 120.472 40.9801C120.579 41.1948 120.689 41.4026 120.811 41.5949C123.299 45.5368 128.108 44.683 130.549 41.3408C131.1 40.5866 131.413 39.9349 131.413 39.9349C131.937 43.2062 134.481 44.2165 135.938 44.2165C137.456 44.2165 138.896 43.5941 140.065 40.8289C140.114 42.0466 140.191 43.0421 140.312 43.3558C140.386 43.5481 140.817 43.7888 141.131 43.9051C142.52 44.42 143.935 44.1767 144.459 44.0708C144.822 43.9972 145.105 43.7059 145.144 42.9543C145.246 40.9801 145.184 37.6632 145.782 35.1977C146.786 31.0609 147.724 29.4562 148.168 28.6618C148.417 28.2164 148.697 28.1431 148.708 28.6142C148.729 29.5676 148.776 32.3664 149.165 36.1275C149.451 38.8931 149.833 40.528 150.126 41.0459C150.964 42.5253 151.998 42.5953 152.84 42.5953C153.376 42.5953 154.497 42.4474 154.396 41.5058C154.347 41.0468 154.433 38.2102 155.423 34.1345C156.07 31.4728 157.148 29.0682 157.537 28.1888C157.681 27.8646 157.748 28.12 157.745 28.17C157.663 30.0029 157.479 35.9983 158.226 39.2774C159.239 43.7194 162.167 44.2165 163.187 44.2165C165.366 44.2165 167.147 42.5595 167.747 38.1994C167.892 37.15 167.678 36.3399 167.036 36.3399Z" fill="#C0C0C0"/>
<path d="M104.635 52.08C104.635 50.37 104.98 48.72 105.67 47.13C106.39 45.51 107.32 44.085 108.46 42.855C109.63 41.595 110.95 40.59 112.42 39.84C113.92 39.06 115.465 38.67 117.055 38.67C118.615 38.67 119.815 39.06 120.655 39.84C121.495 40.62 121.915 41.73 121.915 43.17C121.915 43.86 121.81 44.535 121.6 45.195C121.42 45.825 121.165 46.395 120.835 46.905C120.535 47.415 120.175 47.835 119.755 48.165C119.335 48.465 118.915 48.615 118.495 48.615C118.135 48.615 117.76 48.51 117.37 48.3C117.01 48.06 116.71 47.76 116.47 47.4C118.48 45.57 119.485 43.905 119.485 42.405C119.485 41.535 119.14 41.1 118.45 41.1C117.85 41.1 117.1 41.385 116.2 41.955C115.3 42.525 114.43 43.275 113.59 44.205C112.3 45.645 111.31 47.25 110.62 49.02C109.96 50.76 109.63 52.59 109.63 54.51C109.63 56.94 110.17 58.395 111.25 58.875C111.7 58.815 112.225 58.68 112.825 58.47C113.425 58.26 114.07 57.99 114.76 57.66C115.45 57.3 116.155 56.895 116.875 56.445C117.625 55.995 118.345 55.515 119.035 55.005C119.155 55.095 119.26 55.23 119.35 55.41C119.44 55.59 119.485 55.755 119.485 55.905C118.975 56.535 118.39 57.15 117.73 57.75C117.07 58.35 116.38 58.905 115.66 59.415C114.94 59.895 114.235 60.3 113.545 60.63C112.885 60.99 112.3 61.215 111.79 61.305C110.8 61.215 109.87 60.9 109 60.36C108.13 59.85 107.365 59.175 106.705 58.335C106.075 57.495 105.565 56.535 105.175 55.455C104.815 54.375 104.635 53.25 104.635 52.08ZM123.216 57.12C123.216 55.8 123.531 53.955 124.161 51.585C124.791 49.185 125.676 46.395 126.816 43.215C128.676 38.145 130.416 33.93 132.036 30.57C133.686 27.18 135.291 24.54 136.851 22.65C137.211 22.71 137.646 22.86 138.156 23.1C138.696 23.34 139.221 23.61 139.731 23.91C140.241 24.18 140.691 24.465 141.081 24.765C141.501 25.065 141.771 25.305 141.891 25.485C139.551 28.245 137.496 31.215 135.726 34.395C133.956 37.575 132.336 41.22 130.866 45.33C129.606 48.87 128.646 52.065 127.986 54.915C127.326 57.735 126.996 60.09 126.996 61.98C126.996 62.49 126.996 62.805 126.996 62.925C126.996 63.045 127.011 63.165 127.041 63.285C126.621 63.225 126.261 63.12 125.961 62.97C125.661 62.82 125.466 62.64 125.376 62.43C125.316 62.28 125.151 62.055 124.881 61.755C124.611 61.485 124.371 61.275 124.161 61.125C123.891 60.945 123.666 60.48 123.486 59.73C123.306 58.95 123.216 58.08 123.216 57.12ZM139.03 61.575C137.32 61.395 135.955 60.645 134.935 59.325C133.915 58.005 133.405 56.325 133.405 54.285C133.405 53.085 133.585 51.84 133.945 50.55C134.305 49.26 134.815 48.015 135.475 46.815C136.135 45.585 136.915 44.43 137.815 43.35C138.715 42.27 139.69 41.34 140.74 40.56C142.39 39.33 143.935 38.715 145.375 38.715C146.335 39.225 147.28 40.29 148.21 41.91C148.36 41.91 148.495 41.91 148.615 41.91C148.735 41.88 148.87 41.865 149.02 41.865C150.61 41.865 151.405 43.275 151.405 46.095C151.405 47.985 151.09 49.785 150.46 51.495C149.86 53.175 149.005 54.705 147.895 56.085C146.815 57.465 145.51 58.635 143.98 59.595C142.48 60.525 140.83 61.185 139.03 61.575ZM141.325 47.4C140.815 48.09 140.335 48.84 139.885 49.65C139.435 50.46 139.045 51.285 138.715 52.125C138.385 52.935 138.13 53.73 137.95 54.51C137.77 55.26 137.68 55.935 137.68 56.535C137.68 57.255 137.8 57.945 138.04 58.605C138.28 59.265 138.55 59.64 138.85 59.73C140.2 59.43 141.43 58.875 142.54 58.065C143.68 57.225 144.655 56.19 145.465 54.96C146.305 53.73 146.95 52.335 147.4 50.775C147.88 49.215 148.12 47.55 148.12 45.78C148.12 45 148.075 44.385 147.985 43.935C147.895 43.485 147.745 43.095 147.535 42.765C146.215 43.155 145.03 43.785 143.98 44.655C142.96 45.525 142.075 46.44 141.325 47.4ZM160.874 38.175C161.654 38.415 162.389 38.955 163.079 39.795C163.769 40.605 164.279 41.505 164.609 42.495C164.279 43.305 163.769 44.28 163.079 45.42C162.389 46.56 161.699 47.73 161.009 48.93C160.319 50.1 159.689 51.225 159.119 52.305C158.579 53.355 158.264 54.225 158.174 54.915C158.654 54.405 159.179 53.82 159.749 53.16C160.349 52.47 160.919 51.795 161.459 51.135C162.029 50.445 162.554 49.83 163.034 49.29C163.514 48.72 163.889 48.3 164.159 48.03C164.729 47.43 165.404 46.74 166.184 45.96C166.964 45.15 167.774 44.4 168.614 43.71C169.484 42.99 170.354 42.39 171.224 41.91C172.094 41.4 172.889 41.145 173.609 41.145C174.389 41.145 175.034 41.415 175.544 41.955C176.084 42.465 176.504 43.005 176.804 43.575C176.804 43.635 176.684 43.725 176.444 43.845C176.234 43.935 175.919 44.22 175.499 44.7C175.079 45.24 174.599 45.99 174.059 46.95C173.549 47.88 173.039 48.9 172.529 50.01C172.049 51.09 171.644 52.2 171.314 53.34C170.984 54.48 170.819 55.515 170.819 56.445C170.819 57.195 170.909 57.675 171.089 57.885C171.299 58.095 171.584 58.2 171.944 58.2C172.274 58.2 172.619 58.125 172.979 57.975C173.339 57.825 173.624 57.75 173.834 57.75C173.954 57.81 174.044 57.945 174.104 58.155C174.194 58.335 174.239 58.5 174.239 58.65C173.999 58.86 173.714 59.07 173.384 59.28C173.054 59.49 172.709 59.685 172.349 59.865C171.989 60.045 171.629 60.195 171.269 60.315C170.939 60.435 170.639 60.495 170.369 60.495C169.499 60.495 168.779 60.36 168.209 60.09C167.669 59.85 167.234 59.52 166.904 59.1C166.604 58.68 166.394 58.185 166.274 57.615C166.154 57.015 166.094 56.385 166.094 55.725C166.094 55.365 166.124 54.96 166.184 54.51C166.244 54.06 166.364 53.535 166.544 52.935C166.724 52.305 166.979 51.57 167.309 50.73C167.639 49.86 168.059 48.825 168.569 47.625C168.509 47.625 168.104 47.835 167.354 48.255C166.604 48.675 165.794 49.32 164.924 50.19C163.514 51.54 162.239 52.875 161.099 54.195C159.989 55.515 158.849 56.985 157.679 58.605C157.019 59.535 156.434 60.315 155.924 60.945C155.444 61.605 155.024 62.04 154.664 62.25C154.034 61.89 153.569 61.38 153.269 60.72C152.969 60.09 152.744 59.43 152.594 58.74C152.594 58.17 152.669 57.45 152.819 56.58C152.999 55.71 153.224 54.75 153.494 53.7C153.794 52.62 154.154 51.495 154.574 50.325C154.994 49.155 155.459 47.985 155.969 46.815C157.109 44.175 158.144 42.105 159.074 40.605C160.034 39.105 160.634 38.295 160.874 38.175ZM193.996 41.37C193.876 43.23 193.546 44.835 193.006 46.185C192.466 47.505 191.686 48.675 190.666 49.695C189.676 50.685 188.461 51.585 187.021 52.395C185.581 53.205 183.901 53.985 181.981 54.735C181.981 54.915 181.966 55.11 181.936 55.32C181.936 55.5 181.936 55.695 181.936 55.905C181.936 56.295 181.966 56.7 182.026 57.12C182.086 57.54 182.191 57.93 182.341 58.29C182.491 58.65 182.701 58.95 182.971 59.19C183.241 59.4 183.586 59.505 184.006 59.505C184.816 59.505 185.611 59.325 186.391 58.965C187.171 58.605 187.906 58.17 188.596 57.66C189.316 57.12 189.976 56.55 190.576 55.95C191.206 55.32 191.761 54.75 192.241 54.24C192.541 54.51 192.796 54.765 193.006 55.005C191.656 56.805 190.171 58.305 188.551 59.505C186.961 60.675 185.446 61.425 184.006 61.755C181.936 61.515 180.316 60.765 179.146 59.505C178.006 58.215 177.436 56.67 177.436 54.87C177.436 53.64 177.601 52.395 177.931 51.135C178.291 49.845 178.771 48.615 179.371 47.445C180.001 46.245 180.721 45.12 181.531 44.07C182.371 43.02 183.256 42.105 184.186 41.325C185.146 40.545 186.121 39.93 187.111 39.48C188.131 39.03 189.136 38.805 190.126 38.805C191.506 38.985 192.796 39.84 193.996 41.37ZM190.891 42.855C190.081 42.975 189.241 43.305 188.371 43.845C187.501 44.385 186.676 45.105 185.896 46.005C185.146 46.905 184.456 47.955 183.826 49.155C183.196 50.355 182.701 51.645 182.341 53.025C184.741 51.825 186.736 50.355 188.326 48.615C189.916 46.845 190.771 44.925 190.891 42.855Z" fill="#595959"/>
<g clip-path="url(#clip0_106_2)">
<path d="M99.7175 43.4678C98.4163 43.4764 97.156 43.8653 96.1374 44.5726C95.1189 45.2799 94.4008 46.2648 94.0976 47.3701C93.7945 48.4755 93.9238 49.6377 94.465 50.6714C95.0061 51.705 95.9279 52.5506 97.0833 53.0733V59.1111H101.917V53.2633C103.164 52.8166 104.196 52.0055 104.836 50.9684C105.475 49.9312 105.683 48.7324 105.423 47.5764C105.164 46.4204 104.453 45.3789 103.413 44.6296C102.372 43.8803 101.066 43.4697 99.7175 43.4678Z" fill="#EA1B1B"/>
<path d="M118.833 31.6667V22.6311C118.937 18.054 116.961 13.6273 113.338 10.3197C109.715 7.01213 104.739 5.09298 99.5 4.98222C94.2609 5.09298 89.2853 7.01213 85.662 10.3197C82.0388 13.6273 80.0628 18.054 80.1666 22.6311V31.6667H72.9166V67.5555C72.9166 68.6754 73.4259 69.7493 74.3323 70.5411C75.2387 71.3329 76.4681 71.7778 77.75 71.7778H121.25C122.532 71.7778 123.761 71.3329 124.668 70.5411C125.574 69.7493 126.083 68.6754 126.083 67.5555V31.6667H118.833ZM85 22.6311C84.8958 19.1736 86.3624 15.8206 89.0793 13.3048C91.7963 10.789 95.5427 9.31482 99.5 9.20445C103.457 9.31482 107.204 10.789 109.921 13.3048C112.638 15.8206 114.104 19.1736 114 22.6311V31.6667L85 31.6667V22.6311ZM77.75 67.5555V35.8889H121.25V67.5555H77.75Z" fill="#EA1B1B"/>
</g>
<defs>
<clipPath id="clip0_106_2">
<rect width="87" height="76" fill="white" transform="translate(56)"/>
</clipPath>
</defs>
</svg>
